<svg width="291" height="62" viewBox="0 0 291 62" fill="none" xmlns="http://www.w3.org/2000/svg">
<g filter="url(#filter0_dd_3_62)">
<path fill-rule="evenodd" clip-rule="evenodd" d="M28.0185 9.4578C28.999 14.4667 30.1347 15.9524 33.7896 17.0091C35.7424 17.5739 36.976 18.815 38.2831 21.5309C39.8447 24.7745 39.3877 29.2752 37.2302 31.9101L36.3963 32.928L36.9137 34.1273C37.1985 34.787 37.5827 36.4604 37.7674 37.8462C37.9521 39.232 38.1254 40.366 38.1525 40.3663C38.1792 40.3666 42.216 40.3002 47.1225 40.2187L56.0439 40.0704L54.5082 36.809C50.8579 29.0558 46.3357 23.7065 39.4375 18.982C37.8779 17.9134 36.6016 16.9448 36.6016 16.8288C36.6016 16.4301 37.3006 15.9065 37.8328 15.9065C39.3083 15.9065 44.6752 19.4472 47.8767 22.5324C51.6691 26.1873 56.6303 33.4184 58.5456 38.0825L59.4338 40.2454L63.1196 40.3592L66.8053 40.4731L66.4644 39.6734C65.8146 38.1495 63.5561 34.13 62.1062 31.9169C56.47 23.3158 48.6579 16.8392 40.8598 14.303C39.0777 13.7237 36.5917 13.0302 35.3353 12.7625C33.1986 12.3068 32.9177 12.1532 30.9916 10.3846C28.6319 8.21817 27.7201 7.93384 28.0185 9.4578ZM23.6155 10.4365C23.7865 11.7079 24.9764 14.2114 25.5951 14.6013C25.9996 14.856 27.0034 13.8411 27.0034 13.1773C27.0034 12.2931 26.2527 11.0366 25.1175 10.0205C23.6751 8.72962 23.3965 8.8067 23.6155 10.4365ZM25.5209 16.8526C24.8432 18.206 19.2407 27.6273 17.2635 30.7375C15.258 33.8928 15.0478 34.4267 15.2566 35.8395C15.9337 40.4253 20.3358 42.0409 23.3238 38.8L24.1521 37.9013L23.3965 36.7675C22.48 35.393 22.4512 34.8516 23.2543 34.1125C23.8636 33.5518 23.8749 33.5556 24.8121 34.6595C25.7085 35.7153 26.4217 36.0889 26.4217 35.5027C26.4217 34.921 29.2549 33.1818 30.5166 32.9888C31.2321 32.8796 32.2865 32.4936 32.8595 32.131C33.9607 31.4349 35.7291 29.5204 35.7291 29.0247C35.7291 28.8631 35.9978 28.1115 36.3265 27.3543C36.8937 26.047 36.9015 25.889 36.4792 24.2082C35.6497 20.9086 34.2027 19.373 31.0477 18.4453C29.3128 17.9351 26.7125 16.4161 26.7125 15.913C26.7125 15.213 26.0994 15.6963 25.5209 16.8526ZM29.6999 22.3507C29.6112 22.587 28.7529 23.3629 27.7931 24.0751C26.4208 25.0926 25.9354 25.3085 25.5238 25.0837C25.2356 24.9266 24.9296 24.682 24.8435 24.5403C24.5599 24.0724 26.3519 21.9202 27.6345 21.1884L28.894 20.4697L29.3779 21.1956C29.6441 21.5946 29.7889 22.1144 29.6999 22.3507ZM19.8966 34.706C19.9932 35.0986 19.9257 35.699 19.7465 36.0402C19.1639 37.1497 17.696 36.6389 17.696 35.3266C17.696 33.9355 19.5764 33.405 19.8966 34.706Z" fill="#E5E5EA"/>
</g>
<line x1="77.4719" y1="11.1642" x2="77.5513" y2="37.8309" stroke="#E5E5EA" stroke-width="1.64103"/>
<g filter="url(#filter1_dd_3_62)">
<path d="M88.2137 34.5V15.4044H101.528V19.1527H92.829V23.0688H100.848V26.8263H92.829V30.7517H101.528V34.5H88.2137ZM118.021 27.6375H121.751L123.336 29.6608L125.415 32.0478L128.613 35.9918H124.436L122.198 33.3159L120.874 31.4138L118.021 27.6375ZM128.744 24.9522C128.744 27.0532 128.34 28.8341 127.532 30.2949C126.723 31.7556 125.629 32.8652 124.249 33.6235C122.876 34.3819 121.334 34.7611 119.625 34.7611C117.909 34.7611 116.364 34.3788 114.991 33.6142C113.617 32.8497 112.526 31.7401 111.718 30.2855C110.916 28.8248 110.515 27.047 110.515 24.9522C110.515 22.8512 110.916 21.0703 111.718 19.6096C112.526 18.1488 113.617 17.0392 114.991 16.2809C116.364 15.5225 117.909 15.1434 119.625 15.1434C121.334 15.1434 122.876 15.5225 124.249 16.2809C125.629 17.0392 126.723 18.1488 127.532 19.6096C128.34 21.0703 128.744 22.8512 128.744 24.9522ZM124.026 24.9522C124.026 23.709 123.849 22.6585 123.494 21.8007C123.146 20.9429 122.643 20.2933 121.984 19.852C121.331 19.4106 120.545 19.19 119.625 19.19C118.711 19.19 117.925 19.4106 117.266 19.852C116.607 20.2933 116.1 20.9429 115.746 21.8007C115.398 22.6585 115.224 23.709 115.224 24.9522C115.224 26.1954 115.398 27.2459 115.746 28.1037C116.1 28.9615 116.607 29.6111 117.266 30.0524C117.925 30.4938 118.711 30.7145 119.625 30.7145C120.545 30.7145 121.331 30.4938 121.984 30.0524C122.643 29.6111 123.146 28.9615 123.494 28.1037C123.849 27.2459 124.026 26.1954 124.026 24.9522ZM149.318 15.4044H153.924V27.7214C153.924 29.1449 153.585 30.385 152.908 31.4417C152.23 32.4922 151.285 33.3065 150.073 33.8846C148.861 34.4565 147.453 34.7424 145.849 34.7424C144.227 34.7424 142.81 34.4565 141.598 33.8846C140.385 33.3065 139.444 32.4922 138.772 31.4417C138.101 30.385 137.765 29.1449 137.765 27.7214V15.4044H142.381V27.3205C142.381 27.9794 142.524 28.5668 142.81 29.0828C143.102 29.5987 143.509 30.0027 144.031 30.2949C144.553 30.587 145.159 30.7331 145.849 30.7331C146.539 30.7331 147.142 30.587 147.658 30.2949C148.18 30.0027 148.588 29.5987 148.88 29.0828C149.172 28.5668 149.318 27.9794 149.318 27.3205V15.4044ZM167.734 15.4044V34.5H163.118V15.4044H167.734ZM187.254 21.1294C187.192 20.4456 186.916 19.9141 186.424 19.535C185.94 19.1496 185.247 18.9569 184.345 18.9569C183.748 18.9569 183.251 19.0346 182.853 19.19C182.456 19.3454 182.157 19.5598 181.958 19.8333C181.759 20.1006 181.657 20.4083 181.651 20.7564C181.638 21.0423 181.694 21.2941 181.818 21.5117C181.949 21.7292 182.135 21.9219 182.378 22.0897C182.626 22.2514 182.925 22.3943 183.273 22.5186C183.621 22.643 184.013 22.7517 184.448 22.845L186.089 23.2179C187.034 23.4231 187.867 23.6966 188.588 24.0385C189.315 24.3803 189.924 24.7875 190.415 25.2599C190.912 25.7323 191.288 26.2762 191.543 26.8916C191.798 27.507 191.929 28.197 191.935 28.9615C191.929 30.1674 191.624 31.2024 191.021 32.0664C190.418 32.9305 189.551 33.5925 188.42 34.0524C187.295 34.5124 185.937 34.7424 184.345 34.7424C182.748 34.7424 181.355 34.5031 180.168 34.0245C178.981 33.5458 178.058 32.8186 177.399 31.8427C176.74 30.8667 176.401 29.6329 176.383 28.141H180.802C180.839 28.7564 181.004 29.2692 181.296 29.6795C181.588 30.0897 181.989 30.4005 182.499 30.6119C183.015 30.8232 183.612 30.9289 184.289 30.9289C184.911 30.9289 185.439 30.845 185.874 30.6772C186.316 30.5093 186.654 30.2762 186.891 29.9779C187.127 29.6795 187.248 29.3376 187.254 28.9522C187.248 28.5917 187.136 28.284 186.919 28.0291C186.701 27.7681 186.365 27.5443 185.912 27.3578C185.464 27.1651 184.892 26.988 184.196 26.8263L182.201 26.3601C180.547 25.981 179.245 25.3687 178.294 24.5233C177.343 23.6717 176.87 22.5218 176.877 21.0734C176.87 19.8924 177.187 18.8574 177.828 17.9685C178.468 17.0796 179.354 16.3866 180.485 15.8893C181.616 15.392 182.906 15.1434 184.355 15.1434C185.834 15.1434 187.118 15.3951 188.205 15.8986C189.299 16.3959 190.148 17.0952 190.751 17.9965C191.354 18.8978 191.661 19.9421 191.674 21.1294H187.254ZM200.567 34.5V15.4044H208.456C209.885 15.4044 211.119 15.6841 212.157 16.2436C213.202 16.7968 214.007 17.5707 214.572 18.5653C215.138 19.5536 215.421 20.7036 215.421 22.0152C215.421 23.3329 215.132 24.486 214.554 25.4744C213.982 26.4565 213.164 27.2179 212.101 27.7587C211.038 28.2995 209.777 28.5699 208.316 28.5699H203.449V24.9336H207.458C208.154 24.9336 208.735 24.8124 209.202 24.5699C209.674 24.3275 210.031 23.9887 210.274 23.5536C210.516 23.1123 210.637 22.5995 210.637 22.0152C210.637 21.4246 210.516 20.9149 210.274 20.486C210.031 20.0509 209.674 19.7152 209.202 19.479C208.729 19.2428 208.148 19.1247 207.458 19.1247H205.183V34.5H200.567ZM225.82 34.5H220.86L227.303 15.4044H233.447L239.89 34.5H234.93L230.445 20.2156H230.296L225.82 34.5ZM225.158 26.9848H235.526V30.4907H225.158V26.9848ZM264.683 22.3228H260.021C259.959 21.8442 259.832 21.4122 259.639 21.0268C259.446 20.6414 259.192 20.312 258.875 20.0385C258.558 19.765 258.181 19.5567 257.746 19.4138C257.317 19.2646 256.842 19.19 256.32 19.19C255.394 19.19 254.595 19.4169 253.923 19.8706C253.258 20.3244 252.746 20.9802 252.385 21.838C252.031 22.6958 251.854 23.7339 251.854 24.9522C251.854 26.2203 252.034 27.2832 252.394 28.141C252.761 28.9926 253.274 29.636 253.933 30.0711C254.598 30.5 255.384 30.7145 256.292 30.7145C256.802 30.7145 257.265 30.6492 257.681 30.5186C258.104 30.3881 258.474 30.1985 258.791 29.9499C259.114 29.695 259.378 29.3873 259.583 29.0268C259.795 28.6601 259.941 28.2467 260.021 27.7867L264.683 27.8147C264.603 28.6601 264.357 29.493 263.947 30.3135C263.543 31.134 262.986 31.8831 262.278 32.5606C261.569 33.2319 260.705 33.7665 259.686 34.1643C258.673 34.5622 257.51 34.7611 256.199 34.7611C254.471 34.7611 252.923 34.3819 251.555 33.6235C250.194 32.859 249.119 31.7463 248.329 30.2855C247.54 28.8248 247.145 27.047 247.145 24.9522C247.145 22.8512 247.546 21.0703 248.348 19.6096C249.15 18.1488 250.234 17.0392 251.602 16.2809C252.969 15.5225 254.502 15.1434 256.199 15.1434C257.355 15.1434 258.424 15.305 259.406 15.6282C260.388 15.9452 261.252 16.4114 261.998 17.0268C262.744 17.636 263.35 18.385 263.816 19.2739C264.282 20.1628 264.572 21.1791 264.683 22.3228ZM273.626 34.5V15.4044H286.941V19.1527H278.241V23.0688H286.26V26.8263H278.241V30.7517H286.941V34.5H273.626Z" fill="#E5E5EA"/>
</g>
<defs>
<filter id="filter0_dd_3_62" x="0.423151" y="0.294871" width="81.1513" height="61.5385" filterUnits="userSpaceOnUse" color-interpolation-filters="sRGB">
<feFlood flood-opacity="0" result="BackgroundImageFix"/>
<feColorMatrix in="SourceAlpha" type="matrix" values="0 0 0 0 0 0 0 0 0 0 0 0 0 0 0 0 0 0 127 0" result="hardAlpha"/>
<feOffset dy="3.28205"/>
<feGaussianBlur stdDeviation="1.64103"/>
<feColorMatrix type="matrix" values="0 0 0 0 0 0 0 0 0 0 0 0 0 0 0 0 0 0 0.3 0"/>
<feBlend mode="normal" in2="BackgroundImageFix" result="effect1_dropShadow_3_62"/>
<feColorMatrix in="SourceAlpha" type="matrix" values="0 0 0 0 0 0 0 0 0 0 0 0 0 0 0 0 0 0 127 0" result="hardAlpha"/>
<feMorphology radius="4.92308" operator="dilate" in="SourceAlpha" result="effect2_dropShadow_3_62"/>
<feOffset dy="6.5641"/>
<feGaussianBlur stdDeviation="4.92308"/>
<feColorMatrix type="matrix" values="0 0 0 0 0 0 0 0 0 0 0 0 0 0 0 0 0 0 0.15 0"/>
<feBlend mode="normal" in2="effect1_dropShadow_3_62" result="effect2_dropShadow_3_62"/>
<feBlend mode="normal" in="SourceGraphic" in2="effect2_dropShadow_3_62" result="shape"/>
</filter>
<filter id="filter1_dd_3_62" x="84.9316" y="12.6818" width="205.291" height="27.4126" filterUnits="userSpaceOnUse" color-interpolation-filters="sRGB">
<feFlood flood-opacity="0" result="BackgroundImageFix"/>
<feColorMatrix in="SourceAlpha" type="matrix" values="0 0 0 0 0 0 0 0 0 0 0 0 0 0 0 0 0 0 127 0" result="hardAlpha"/>
<feOffset dy="0.820513"/>
<feGaussianBlur stdDeviation="0.820513"/>
<feColorMatrix type="matrix" values="0 0 0 0 0 0 0 0 0 0 0 0 0 0 0 0 0 0 0.3 0"/>
<feBlend mode="normal" in2="BackgroundImageFix" result="effect1_dropShadow_3_62"/>
<feColorMatrix in="SourceAlpha" type="matrix" values="0 0 0 0 0 0 0 0 0 0 0 0 0 0 0 0 0 0 127 0" result="hardAlpha"/>
<feMorphology radius="0.820513" operator="dilate" in="SourceAlpha" result="effect2_dropShadow_3_62"/>
<feOffset dy="0.820513"/>
<feGaussianBlur stdDeviation="1.23077"/>
<feColorMatrix type="matrix" values="0 0 0 0 0 0 0 0 0 0 0 0 0 0 0 0 0 0 0.15 0"/>
<feBlend mode="normal" in2="effect1_dropShadow_3_62" result="effect2_dropShadow_3_62"/>
<feBlend mode="normal" in="SourceGraphic" in2="effect2_dropShadow_3_62" result="shape"/>
</filter>
</defs>
</svg>
