<svg width="67" height="36" viewBox="0 0 67 36" fill="none" xmlns="http://www.w3.org/2000/svg">
<g filter="url(#filter0_dd_3_84)">
<path fill-rule="evenodd" clip-rule="evenodd" d="M27.5264 3.43446C27.9776 5.70655 28.5003 6.38048 30.1824 6.8598C31.081 7.11601 31.6487 7.67899 32.2503 8.91092C32.9689 10.3822 32.7586 12.4238 31.7657 13.619L31.3819 14.0807L31.6201 14.6247C31.7511 14.924 31.9279 15.6831 32.0129 16.3117C32.0979 16.9403 32.1777 17.4547 32.1902 17.4548C32.2025 17.455 34.0602 17.4248 36.3182 17.3879L40.4239 17.3206L39.7172 15.8412C38.0373 12.3243 35.9561 9.89781 32.7815 7.7547C32.0638 7.27 31.4765 6.83062 31.4765 6.77803C31.4765 6.59714 31.7981 6.35963 32.0431 6.35963C32.7221 6.35963 35.192 7.96572 36.6653 9.36523C38.4106 11.0231 40.6938 14.3032 41.5752 16.4189L41.984 17.4L43.6802 17.4516L45.3764 17.5032L45.2195 17.1405C44.9205 16.4492 43.8811 14.626 43.2138 13.6221C40.62 9.72055 37.0248 6.78274 33.4361 5.63231C32.6159 5.36951 31.4719 5.05494 30.8937 4.9335C29.9104 4.72678 29.7811 4.65712 28.8947 3.85488C27.8087 2.87216 27.3891 2.74318 27.5264 3.43446ZM25.5001 3.87842C25.5789 4.45511 26.1265 5.59075 26.4112 5.76761C26.5973 5.88313 27.0593 5.42277 27.0593 5.12165C27.0593 4.7206 26.7138 4.15063 26.1914 3.68973C25.5276 3.10416 25.3994 3.13912 25.5001 3.87842ZM26.377 6.78879C26.0651 7.40274 23.4869 11.6763 22.5769 13.0871C21.654 14.5184 21.5572 14.7606 21.6533 15.4014C21.9649 17.4816 23.9908 18.2144 25.3659 16.7443L25.7471 16.3367L25.3994 15.8224C24.9776 15.1989 24.9643 14.9533 25.3339 14.618C25.6143 14.3637 25.6195 14.3654 26.0508 14.8662C26.4634 15.3451 26.7916 15.5145 26.7916 15.2486C26.7916 14.9848 28.0954 14.1959 28.6761 14.1083C29.0054 14.0588 29.4906 13.8837 29.7543 13.7192C30.2611 13.4034 31.0749 12.535 31.0749 12.3102C31.0749 12.2369 31.1986 11.8959 31.3498 11.5524C31.6108 10.9595 31.6145 10.8878 31.4201 10.1254C31.0383 8.62862 30.3724 7.9321 28.9205 7.51128C28.1221 7.27982 26.9254 6.59082 26.9254 6.36259C26.9254 6.04506 26.6433 6.26428 26.377 6.78879ZM28.3002 9.28278C28.2594 9.38997 27.8644 9.74194 27.4227 10.065C26.7912 10.5266 26.5678 10.6245 26.3784 10.5225C26.2457 10.4512 26.1049 10.3403 26.0653 10.276C25.9348 10.0638 26.7594 9.0875 27.3497 8.75558L27.9293 8.42958L28.1521 8.75881C28.2745 8.93983 28.3412 9.1756 28.3002 9.28278ZM23.7887 14.8873C23.8331 15.0653 23.8021 15.3377 23.7196 15.4925C23.4515 15.9957 22.776 15.764 22.776 15.1688C22.776 14.5377 23.6413 14.2971 23.7887 14.8873Z" fill="#E5E5EA"/>
</g>
<g filter="url(#filter1_dd_3_84)">
<path d="M1.53978 28.1547V22.0126H5.82244V23.2182H3.02432V24.4778H5.60351V25.6864H3.02432V26.949H5.82244V28.1547H1.53978ZM11.1273 25.9474H12.3269L12.8368 26.5981L13.5056 27.3659L14.5342 28.6345H13.1907L12.4709 27.7738L12.045 27.162L11.1273 25.9474ZM14.5762 25.0836C14.5762 25.7594 14.4463 26.3322 14.1864 26.8021C13.9264 27.2719 13.5745 27.6288 13.1307 27.8728C12.6888 28.1167 12.193 28.2386 11.6431 28.2386C11.0913 28.2386 10.5945 28.1157 10.1526 27.8698C9.71075 27.6238 9.35986 27.2669 9.09994 26.7991C8.84202 26.3292 8.71306 25.7574 8.71306 25.0836C8.71306 24.4078 8.84202 23.835 9.09994 23.3652C9.35986 22.8953 9.71075 22.5384 10.1526 22.2945C10.5945 22.0506 11.0913 21.9286 11.6431 21.9286C12.193 21.9286 12.6888 22.0506 13.1307 22.2945C13.5745 22.5384 13.9264 22.8953 14.1864 23.3652C14.4463 23.835 14.5762 24.4078 14.5762 25.0836ZM13.0587 25.0836C13.0587 24.6837 13.0017 24.3459 12.8878 24.0699C12.7758 23.794 12.6138 23.5851 12.4019 23.4431C12.192 23.3012 11.9391 23.2302 11.6431 23.2302C11.3492 23.2302 11.0963 23.3012 10.8844 23.4431C10.6724 23.5851 10.5095 23.794 10.3955 24.0699C10.2836 24.3459 10.2276 24.6837 10.2276 25.0836C10.2276 25.4835 10.2836 25.8214 10.3955 26.0973C10.5095 26.3732 10.6724 26.5822 10.8844 26.7241C11.0963 26.8661 11.3492 26.937 11.6431 26.937C11.9391 26.937 12.192 26.8661 12.4019 26.7241C12.6138 26.5822 12.7758 26.3732 12.8878 26.0973C13.0017 25.8214 13.0587 25.4835 13.0587 25.0836ZM21.1939 22.0126H22.6755V25.9743C22.6755 26.4322 22.5665 26.8311 22.3486 27.171C22.1306 27.5089 21.8267 27.7708 21.4369 27.9567C21.047 28.1407 20.5941 28.2326 20.0783 28.2326C19.5564 28.2326 19.1006 28.1407 18.7107 27.9567C18.3208 27.7708 18.0179 27.5089 17.802 27.171C17.5861 26.8311 17.4781 26.4322 17.4781 25.9743V22.0126H18.9626V25.8454C18.9626 26.0573 19.0086 26.2463 19.1006 26.4122C19.1946 26.5782 19.3255 26.7081 19.4935 26.8021C19.6614 26.8961 19.8564 26.943 20.0783 26.943C20.3002 26.943 20.4942 26.8961 20.6601 26.8021C20.828 26.7081 20.959 26.5782 21.053 26.4122C21.1469 26.2463 21.1939 26.0573 21.1939 25.8454V22.0126ZM27.1174 22.0126V28.1547H25.6328V22.0126H27.1174ZM33.3962 23.854C33.3762 23.6341 33.2872 23.4631 33.1292 23.3412C32.9733 23.2172 32.7504 23.1552 32.4605 23.1552C32.2685 23.1552 32.1086 23.1802 31.9806 23.2302C31.8526 23.2802 31.7567 23.3492 31.6927 23.4371C31.6287 23.5231 31.5957 23.6221 31.5937 23.734C31.5897 23.826 31.6077 23.907 31.6477 23.977C31.6897 24.0469 31.7497 24.1089 31.8276 24.1629C31.9076 24.2149 32.0036 24.2609 32.1156 24.3009C32.2275 24.3409 32.3535 24.3758 32.4934 24.4058L33.0213 24.5258C33.3252 24.5918 33.5931 24.6797 33.825 24.7897C34.059 24.8997 34.2549 25.0306 34.4128 25.1826C34.5728 25.3345 34.6938 25.5095 34.7757 25.7074C34.8577 25.9054 34.8997 26.1273 34.9017 26.3732C34.8997 26.7611 34.8017 27.094 34.6078 27.3719C34.4138 27.6498 34.1349 27.8628 33.771 28.0107C33.4092 28.1587 32.9723 28.2326 32.4605 28.2326C31.9466 28.2326 31.4988 28.1557 31.1169 28.0017C30.735 27.8478 30.4381 27.6138 30.2261 27.2999C30.0142 26.986 29.9052 26.5892 29.8993 26.1093H31.3208C31.3328 26.3072 31.3858 26.4722 31.4798 26.6041C31.5737 26.7361 31.7027 26.8361 31.8666 26.9041C32.0326 26.972 32.2245 27.006 32.4425 27.006C32.6424 27.006 32.8123 26.979 32.9523 26.925C33.0943 26.8711 33.2032 26.7961 33.2792 26.7001C33.3552 26.6041 33.3942 26.4942 33.3962 26.3702C33.3942 26.2543 33.3582 26.1553 33.2882 26.0733C33.2182 25.9893 33.1102 25.9174 32.9643 25.8574C32.8203 25.7954 32.6364 25.7384 32.4125 25.6864L31.7707 25.5365C31.2388 25.4145 30.82 25.2176 30.5141 24.9457C30.2082 24.6718 30.0562 24.3019 30.0582 23.836C30.0562 23.4561 30.1582 23.1232 30.3641 22.8373C30.57 22.5514 30.855 22.3285 31.2188 22.1685C31.5827 22.0086 31.9976 21.9286 32.4635 21.9286C32.9393 21.9286 33.3522 22.0096 33.7021 22.1715C34.054 22.3315 34.3269 22.5564 34.5208 22.8463C34.7147 23.1362 34.8137 23.4721 34.8177 23.854H33.3962ZM37.6783 28.1547V22.0126H40.2155C40.6754 22.0126 41.0723 22.1026 41.4062 22.2825C41.7421 22.4604 42.001 22.7094 42.1829 23.0293C42.3649 23.3472 42.4558 23.717 42.4558 24.1389C42.4558 24.5628 42.3629 24.9337 42.1769 25.2516C41.993 25.5675 41.7301 25.8124 41.3882 25.9863C41.0463 26.1603 40.6404 26.2473 40.1706 26.2473H38.6051V25.0776H39.8946C40.1186 25.0776 40.3055 25.0386 40.4555 24.9607C40.6074 24.8827 40.7224 24.7737 40.8004 24.6338C40.8783 24.4918 40.9173 24.3269 40.9173 24.1389C40.9173 23.949 40.8783 23.785 40.8004 23.6471C40.7224 23.5071 40.6074 23.3991 40.4555 23.3232C40.3035 23.2472 40.1166 23.2092 39.8946 23.2092H39.1629V28.1547H37.6783ZM45.8008 28.1547H44.2053L46.2777 22.0126H48.2541L50.3264 28.1547H48.7309L47.2884 23.5601H47.2404L45.8008 28.1547ZM45.5879 25.7374H48.9228V26.8651H45.5879V25.7374ZM58.3012 24.2379H56.8017C56.7817 24.0839 56.7407 23.945 56.6787 23.821C56.6167 23.6971 56.5347 23.5911 56.4328 23.5031C56.3308 23.4151 56.2098 23.3482 56.0699 23.3022C55.9319 23.2542 55.779 23.2302 55.611 23.2302C55.3131 23.2302 55.0562 23.3032 54.8403 23.4491C54.6263 23.5951 54.4614 23.806 54.3454 24.0819C54.2315 24.3578 54.1745 24.6917 54.1745 25.0836C54.1745 25.4915 54.2325 25.8334 54.3484 26.1093C54.4664 26.3832 54.6313 26.5902 54.8433 26.7301C55.0572 26.8681 55.3101 26.937 55.602 26.937C55.766 26.937 55.9149 26.9161 56.0489 26.8741C56.1848 26.8321 56.3038 26.7711 56.4058 26.6911C56.5097 26.6091 56.5947 26.5102 56.6607 26.3942C56.7287 26.2762 56.7757 26.1433 56.8017 25.9953L58.3012 26.0043C58.2752 26.2762 58.1962 26.5442 58.0643 26.8081C57.9343 27.072 57.7554 27.3129 57.5274 27.5309C57.2995 27.7468 57.0216 27.9187 56.6937 28.0467C56.3678 28.1747 55.9939 28.2386 55.572 28.2386C55.0162 28.2386 54.5184 28.1167 54.0785 27.8728C53.6406 27.6268 53.2948 27.2689 53.0408 26.7991C52.7869 26.3292 52.6599 25.7574 52.6599 25.0836C52.6599 24.4078 52.7889 23.835 53.0468 23.3652C53.3047 22.8953 53.6536 22.5384 54.0935 22.2945C54.5334 22.0506 55.0262 21.9286 55.572 21.9286C55.9439 21.9286 56.2878 21.9806 56.6037 22.0846C56.9196 22.1865 57.1975 22.3365 57.4375 22.5344C57.6774 22.7304 57.8723 22.9713 58.0223 23.2572C58.1722 23.5431 58.2652 23.87 58.3012 24.2379ZM61.1776 28.1547V22.0126H65.4602V23.2182H62.6621V24.4778H65.2413V25.6864H62.6621V26.949H65.4602V28.1547H61.1776Z" fill="#E5E5EA"/>
</g>
<g filter="url(#filter2_dd_3_84)">
<line x1="28.6174" y1="33.5856" x2="38.3824" y2="33.5856" stroke="#E5E5EA" stroke-width="1.58351"/>
</g>
<defs>
<filter id="filter0_dd_3_84" x="16.8733" y="0.360825" width="33.2537" height="24.0165" filterUnits="userSpaceOnUse" color-interpolation-filters="sRGB">
<feFlood flood-opacity="0" result="BackgroundImageFix"/>
<feColorMatrix in="SourceAlpha" type="matrix" values="0 0 0 0 0 0 0 0 0 0 0 0 0 0 0 0 0 0 127 0" result="hardAlpha"/>
<feOffset dy="1.05567"/>
<feGaussianBlur stdDeviation="0.527835"/>
<feColorMatrix type="matrix" values="0 0 0 0 0 0 0 0 0 0 0 0 0 0 0 0 0 0 0.3 0"/>
<feBlend mode="normal" in2="BackgroundImageFix" result="effect1_dropShadow_3_84"/>
<feColorMatrix in="SourceAlpha" type="matrix" values="0 0 0 0 0 0 0 0 0 0 0 0 0 0 0 0 0 0 127 0" result="hardAlpha"/>
<feMorphology radius="1.58351" operator="dilate" in="SourceAlpha" result="effect2_dropShadow_3_84"/>
<feOffset dy="2.11134"/>
<feGaussianBlur stdDeviation="1.58351"/>
<feColorMatrix type="matrix" values="0 0 0 0 0 0 0 0 0 0 0 0 0 0 0 0 0 0 0.15 0"/>
<feBlend mode="normal" in2="effect1_dropShadow_3_84" result="effect2_dropShadow_3_84"/>
<feBlend mode="normal" in="SourceGraphic" in2="effect2_dropShadow_3_84" result="shape"/>
</filter>
<filter id="filter1_dd_3_84" x="0.484125" y="21.1368" width="66.0318" height="8.81727" filterUnits="userSpaceOnUse" color-interpolation-filters="sRGB">
<feFlood flood-opacity="0" result="BackgroundImageFix"/>
<feColorMatrix in="SourceAlpha" type="matrix" values="0 0 0 0 0 0 0 0 0 0 0 0 0 0 0 0 0 0 127 0" result="hardAlpha"/>
<feOffset dy="0.263918"/>
<feGaussianBlur stdDeviation="0.263918"/>
<feColorMatrix type="matrix" values="0 0 0 0 0 0 0 0 0 0 0 0 0 0 0 0 0 0 0.3 0"/>
<feBlend mode="normal" in2="BackgroundImageFix" result="effect1_dropShadow_3_84"/>
<feColorMatrix in="SourceAlpha" type="matrix" values="0 0 0 0 0 0 0 0 0 0 0 0 0 0 0 0 0 0 127 0" result="hardAlpha"/>
<feMorphology radius="0.263918" operator="dilate" in="SourceAlpha" result="effect2_dropShadow_3_84"/>
<feOffset dy="0.263918"/>
<feGaussianBlur stdDeviation="0.395876"/>
<feColorMatrix type="matrix" values="0 0 0 0 0 0 0 0 0 0 0 0 0 0 0 0 0 0 0.15 0"/>
<feBlend mode="normal" in2="effect1_dropShadow_3_84" result="effect2_dropShadow_3_84"/>
<feBlend mode="normal" in="SourceGraphic" in2="effect2_dropShadow_3_84" result="shape"/>
</filter>
<filter id="filter2_dd_3_84" x="27.5618" y="32.0021" width="11.8762" height="3.69484" filterUnits="userSpaceOnUse" color-interpolation-filters="sRGB">
<feFlood flood-opacity="0" result="BackgroundImageFix"/>
<feColorMatrix in="SourceAlpha" type="matrix" values="0 0 0 0 0 0 0 0 0 0 0 0 0 0 0 0 0 0 127 0" result="hardAlpha"/>
<feOffset dy="0.263918"/>
<feGaussianBlur stdDeviation="0.263918"/>
<feColorMatrix type="matrix" values="0 0 0 0 0 0 0 0 0 0 0 0 0 0 0 0 0 0 0.3 0"/>
<feBlend mode="normal" in2="BackgroundImageFix" result="effect1_dropShadow_3_84"/>
<feColorMatrix in="SourceAlpha" type="matrix" values="0 0 0 0 0 0 0 0 0 0 0 0 0 0 0 0 0 0 127 0" result="hardAlpha"/>
<feMorphology radius="0.263918" operator="dilate" in="SourceAlpha" result="effect2_dropShadow_3_84"/>
<feOffset dy="0.263918"/>
<feGaussianBlur stdDeviation="0.395876"/>
<feColorMatrix type="matrix" values="0 0 0 0 0 0 0 0 0 0 0 0 0 0 0 0 0 0 0.15 0"/>
<feBlend mode="normal" in2="effect1_dropShadow_3_84" result="effect2_dropShadow_3_84"/>
<feBlend mode="normal" in="SourceGraphic" in2="effect2_dropShadow_3_84" result="shape"/>
</filter>
</defs>
</svg>
