<svg width="281" height="63" viewBox="0 0 281 63" fill="none" xmlns="http://www.w3.org/2000/svg">
<g filter="url(#filter0_dd_3_69)">
<path fill-rule="evenodd" clip-rule="evenodd" d="M28.2109 9.9578C29.1913 14.9667 30.3271 16.4524 33.982 17.5091C35.9348 18.0739 37.1684 19.315 38.4755 22.0309C40.0371 25.2745 39.5801 29.7752 37.4226 32.4101L36.5887 33.428L37.1061 34.6273C37.3909 35.287 37.7751 36.9604 37.9598 38.3462C38.1445 39.732 38.3178 40.866 38.3449 40.8663C38.3716 40.8666 42.4084 40.8002 47.3149 40.7187L56.2363 40.5704L54.7006 37.309C51.0503 29.5558 46.5281 24.2065 39.6299 19.482C38.0703 18.4134 36.794 17.4448 36.794 17.3288C36.794 16.9301 37.4929 16.4065 38.0252 16.4065C39.5007 16.4065 44.8676 19.9472 48.0691 23.0324C51.8615 26.6873 56.8227 33.9184 58.7379 38.5825L59.6262 40.7454L63.3119 40.8592L66.9977 40.9731L66.6568 40.1734C66.007 38.6495 63.7485 34.63 62.2986 32.4169C56.6624 23.8158 48.8503 17.3392 41.0522 14.803C39.2701 14.2237 36.7841 13.5302 35.5276 13.2625C33.391 12.8068 33.11 12.6532 31.184 10.8846C28.8243 8.71817 27.9124 8.43384 28.2109 9.9578ZM23.8079 10.9365C23.9789 12.2079 25.1688 14.7114 25.7874 15.1013C26.192 15.356 27.1958 14.3411 27.1958 13.6773C27.1958 12.7931 26.4451 11.5366 25.3099 10.5205C23.8675 9.22962 23.5889 9.3067 23.8079 10.9365ZM25.7133 17.3526C25.0356 18.706 19.4331 28.1273 17.4559 31.2375C15.4504 34.3928 15.2401 34.9267 15.449 36.3395C16.1261 40.9253 20.5282 42.5409 23.5162 39.3L24.3445 38.4013L23.5889 37.2675C22.6724 35.893 22.6436 35.3516 23.4466 34.6125C24.056 34.0518 24.0673 34.0556 25.0045 35.1595C25.9009 36.2153 26.6141 36.5889 26.6141 36.0027C26.6141 35.421 29.4473 33.6818 30.709 33.4888C31.4245 33.3796 32.4789 32.9936 33.0519 32.631C34.153 31.9349 35.9215 30.0204 35.9215 29.5247C35.9215 29.3631 36.1902 28.6115 36.5189 27.8543C37.086 26.547 37.0939 26.389 36.6716 24.7082C35.842 21.4086 34.395 19.873 31.2401 18.9453C29.5052 18.4351 26.9049 16.9161 26.9049 16.413C26.9049 15.713 26.2918 16.1963 25.7133 17.3526ZM29.8923 22.8507C29.8036 23.087 28.9453 23.8629 27.9854 24.5751C26.6132 25.5926 26.1278 25.8085 25.7162 25.5837C25.428 25.4266 25.122 25.182 25.0359 25.0403C24.7523 24.5724 26.5443 22.4202 27.8269 21.6884L29.0863 20.9697L29.5703 21.6956C29.8365 22.0946 29.9813 22.6144 29.8923 22.8507ZM20.089 35.206C20.1856 35.5986 20.1181 36.199 19.9389 36.5402C19.3563 37.6497 17.8884 37.1389 17.8884 35.8266C17.8884 34.4355 19.7688 33.905 20.089 35.206Z" fill="#E5E5EA"/>
</g>
<g filter="url(#filter1_dd_3_69)">
<path d="M78.4803 35V15.9044H91.7949V19.6527H83.0956V23.5688H91.1143V27.3263H83.0956V31.2517H91.7949V35H78.4803ZM108.288 28.1375H112.017L113.602 30.1608L115.682 32.5478L118.88 36.4918H114.703L112.465 33.8159L111.141 31.9138L108.288 28.1375ZM119.01 25.4522C119.01 27.5532 118.606 29.3341 117.798 30.7949C116.99 32.2556 115.896 33.3652 114.516 34.1235C113.142 34.8819 111.601 35.2611 109.891 35.2611C108.176 35.2611 106.631 34.8788 105.257 34.1142C103.884 33.3497 102.793 32.2401 101.985 30.7855C101.183 29.3248 100.782 27.547 100.782 25.4522C100.782 23.3512 101.183 21.5703 101.985 20.1096C102.793 18.6488 103.884 17.5392 105.257 16.7809C106.631 16.0225 108.176 15.6434 109.891 15.6434C111.601 15.6434 113.142 16.0225 114.516 16.7809C115.896 17.5392 116.99 18.6488 117.798 20.1096C118.606 21.5703 119.01 23.3512 119.01 25.4522ZM114.292 25.4522C114.292 24.209 114.115 23.1585 113.761 22.3007C113.413 21.4429 112.909 20.7933 112.25 20.352C111.598 19.9106 110.811 19.69 109.891 19.69C108.978 19.69 108.191 19.9106 107.532 20.352C106.873 20.7933 106.367 21.4429 106.013 22.3007C105.664 23.1585 105.49 24.209 105.49 25.4522C105.49 26.6954 105.664 27.7459 106.013 28.6037C106.367 29.4615 106.873 30.1111 107.532 30.5524C108.191 30.9938 108.978 31.2145 109.891 31.2145C110.811 31.2145 111.598 30.9938 112.25 30.5524C112.909 30.1111 113.413 29.4615 113.761 28.6037C114.115 27.7459 114.292 26.6954 114.292 25.4522ZM139.585 15.9044H144.191V28.2214C144.191 29.6449 143.852 30.885 143.174 31.9417C142.497 32.9922 141.552 33.8065 140.34 34.3846C139.128 34.9565 137.72 35.2424 136.116 35.2424C134.494 35.2424 133.076 34.9565 131.864 34.3846C130.652 33.8065 129.71 32.9922 129.039 31.9417C128.368 30.885 128.032 29.6449 128.032 28.2214V15.9044H132.647V27.8205C132.647 28.4794 132.79 29.0668 133.076 29.5828C133.368 30.0987 133.776 30.5027 134.298 30.7949C134.82 31.087 135.426 31.2331 136.116 31.2331C136.806 31.2331 137.409 31.087 137.925 30.7949C138.447 30.5027 138.854 30.0987 139.146 29.5828C139.438 29.0668 139.585 28.4794 139.585 27.8205V15.9044ZM158 15.9044V35H153.385V15.9044H158ZM177.521 21.6294C177.459 20.9456 177.182 20.4141 176.691 20.035C176.206 19.6496 175.513 19.4569 174.612 19.4569C174.015 19.4569 173.518 19.5346 173.12 19.69C172.722 19.8454 172.424 20.0598 172.225 20.3333C172.026 20.6006 171.923 20.9083 171.917 21.2564C171.905 21.5423 171.961 21.7941 172.085 22.0117C172.216 22.2292 172.402 22.4219 172.644 22.5897C172.893 22.7514 173.191 22.8943 173.54 23.0186C173.888 23.143 174.279 23.2517 174.714 23.345L176.355 23.7179C177.3 23.9231 178.133 24.1966 178.854 24.5385C179.582 24.8803 180.191 25.2875 180.682 25.7599C181.179 26.2323 181.555 26.7762 181.81 27.3916C182.065 28.007 182.195 28.697 182.202 29.4615C182.195 30.6674 181.891 31.7024 181.288 32.5664C180.685 33.4305 179.818 34.0925 178.686 34.5524C177.561 35.0124 176.203 35.2424 174.612 35.2424C173.014 35.2424 171.622 35.0031 170.435 34.5245C169.247 34.0458 168.324 33.3186 167.665 32.3427C167.007 31.3667 166.668 30.1329 166.649 28.641H171.069C171.106 29.2564 171.271 29.7692 171.563 30.1795C171.855 30.5897 172.256 30.9005 172.766 31.1119C173.282 31.3232 173.878 31.4289 174.556 31.4289C175.177 31.4289 175.706 31.345 176.141 31.1772C176.582 31.0093 176.921 30.7762 177.157 30.4779C177.393 30.1795 177.515 29.8376 177.521 29.4522C177.515 29.0917 177.403 28.784 177.185 28.5291C176.968 28.2681 176.632 28.0443 176.178 27.8578C175.731 27.6651 175.159 27.488 174.463 27.3263L172.467 26.8601C170.814 26.481 169.512 25.8687 168.561 25.0233C167.609 24.1717 167.137 23.0218 167.143 21.5734C167.137 20.3924 167.454 19.3574 168.094 18.4685C168.735 17.5796 169.62 16.8866 170.752 16.3893C171.883 15.892 173.173 15.6434 174.621 15.6434C176.101 15.6434 177.384 15.8951 178.472 16.3986C179.566 16.8959 180.414 17.5952 181.017 18.4965C181.62 19.3978 181.928 20.4421 181.94 21.6294H177.521ZM190.834 35V15.9044H198.722C200.152 15.9044 201.386 16.1841 202.424 16.7436C203.468 17.2968 204.273 18.0707 204.839 19.0653C205.404 20.0536 205.687 21.2036 205.687 22.5152C205.687 23.8329 205.398 24.986 204.82 25.9744C204.248 26.9565 203.431 27.7179 202.368 28.2587C201.305 28.7995 200.043 29.0699 198.582 29.0699H193.715V25.4336H197.725C198.421 25.4336 199.002 25.3124 199.468 25.0699C199.941 24.8275 200.298 24.4887 200.54 24.0536C200.783 23.6123 200.904 23.0995 200.904 22.5152C200.904 21.9246 200.783 21.4149 200.54 20.986C200.298 20.5509 199.941 20.2152 199.468 19.979C198.996 19.7428 198.415 19.6247 197.725 19.6247H195.449V35H190.834ZM216.087 35H211.126L217.569 15.9044H223.714L230.157 35H225.196L220.711 20.7156H220.562L216.087 35ZM215.425 27.4848H225.793V30.9907H215.425V27.4848ZM254.95 22.8228H250.288C250.226 22.3442 250.098 21.9122 249.906 21.5268C249.713 21.1414 249.458 20.812 249.141 20.5385C248.824 20.265 248.448 20.0567 248.013 19.9138C247.584 19.7646 247.109 19.69 246.586 19.69C245.66 19.69 244.861 19.9169 244.19 20.3706C243.525 20.8244 243.012 21.4802 242.652 22.338C242.297 23.1958 242.12 24.2339 242.12 25.4522C242.12 26.7203 242.3 27.7832 242.661 28.641C243.028 29.4926 243.541 30.136 244.199 30.5711C244.865 31 245.651 31.2145 246.558 31.2145C247.068 31.2145 247.531 31.1492 247.948 31.0186C248.37 30.8881 248.74 30.6985 249.057 30.4499C249.38 30.195 249.645 29.8873 249.85 29.5268C250.061 29.1601 250.207 28.7467 250.288 28.2867L254.95 28.3147C254.869 29.1601 254.624 29.993 254.213 30.8135C253.809 31.634 253.253 32.3831 252.544 33.0606C251.836 33.7319 250.972 34.2665 249.952 34.6643C248.939 35.0622 247.777 35.2611 246.465 35.2611C244.737 35.2611 243.189 34.8819 241.822 34.1235C240.46 33.359 239.385 32.2463 238.596 30.7855C237.806 29.3248 237.412 27.547 237.412 25.4522C237.412 23.3512 237.812 21.5703 238.614 20.1096C239.416 18.6488 240.501 17.5392 241.868 16.7809C243.236 16.0225 244.768 15.6434 246.465 15.6434C247.621 15.6434 248.69 15.805 249.673 16.1282C250.655 16.4452 251.519 16.9114 252.265 17.5268C253.011 18.136 253.617 18.885 254.083 19.7739C254.549 20.6628 254.838 21.6791 254.95 22.8228ZM263.893 35V15.9044H277.207V19.6527H268.508V23.5688H276.527V27.3263H268.508V31.2517H277.207V35H263.893Z" fill="#E5E5EA"/>
</g>
<defs>
<filter id="filter0_dd_3_69" x="0.615534" y="0.794871" width="81.1513" height="61.5385" filterUnits="userSpaceOnUse" color-interpolation-filters="sRGB">
<feFlood flood-opacity="0" result="BackgroundImageFix"/>
<feColorMatrix in="SourceAlpha" type="matrix" values="0 0 0 0 0 0 0 0 0 0 0 0 0 0 0 0 0 0 127 0" result="hardAlpha"/>
<feOffset dy="3.28205"/>
<feGaussianBlur stdDeviation="1.64103"/>
<feColorMatrix type="matrix" values="0 0 0 0 0 0 0 0 0 0 0 0 0 0 0 0 0 0 0.3 0"/>
<feBlend mode="normal" in2="BackgroundImageFix" result="effect1_dropShadow_3_69"/>
<feColorMatrix in="SourceAlpha" type="matrix" values="0 0 0 0 0 0 0 0 0 0 0 0 0 0 0 0 0 0 127 0" result="hardAlpha"/>
<feMorphology radius="4.92308" operator="dilate" in="SourceAlpha" result="effect2_dropShadow_3_69"/>
<feOffset dy="6.5641"/>
<feGaussianBlur stdDeviation="4.92308"/>
<feColorMatrix type="matrix" values="0 0 0 0 0 0 0 0 0 0 0 0 0 0 0 0 0 0 0.15 0"/>
<feBlend mode="normal" in2="effect1_dropShadow_3_69" result="effect2_dropShadow_3_69"/>
<feBlend mode="normal" in="SourceGraphic" in2="effect2_dropShadow_3_69" result="shape"/>
</filter>
<filter id="filter1_dd_3_69" x="75.1982" y="13.1818" width="205.291" height="27.4126" filterUnits="userSpaceOnUse" color-interpolation-filters="sRGB">
<feFlood flood-opacity="0" result="BackgroundImageFix"/>
<feColorMatrix in="SourceAlpha" type="matrix" values="0 0 0 0 0 0 0 0 0 0 0 0 0 0 0 0 0 0 127 0" result="hardAlpha"/>
<feOffset dy="0.820513"/>
<feGaussianBlur stdDeviation="0.820513"/>
<feColorMatrix type="matrix" values="0 0 0 0 0 0 0 0 0 0 0 0 0 0 0 0 0 0 0.3 0"/>
<feBlend mode="normal" in2="BackgroundImageFix" result="effect1_dropShadow_3_69"/>
<feColorMatrix in="SourceAlpha" type="matrix" values="0 0 0 0 0 0 0 0 0 0 0 0 0 0 0 0 0 0 127 0" result="hardAlpha"/>
<feMorphology radius="0.820513" operator="dilate" in="SourceAlpha" result="effect2_dropShadow_3_69"/>
<feOffset dy="0.820513"/>
<feGaussianBlur stdDeviation="1.23077"/>
<feColorMatrix type="matrix" values="0 0 0 0 0 0 0 0 0 0 0 0 0 0 0 0 0 0 0.15 0"/>
<feBlend mode="normal" in2="effect1_dropShadow_3_69" result="effect2_dropShadow_3_69"/>
<feBlend mode="normal" in="SourceGraphic" in2="effect2_dropShadow_3_69" result="shape"/>
</filter>
</defs>
</svg>
