<svg width="281" height="62" viewBox="0 0 281 62" fill="none" xmlns="http://www.w3.org/2000/svg">
<g filter="url(#filter0_dd_3_57)">
<path fill-rule="evenodd" clip-rule="evenodd" d="M28.0185 9.4578C28.999 14.4667 30.1347 15.9524 33.7896 17.0091C35.7424 17.5739 36.976 18.815 38.2831 21.5309C39.8447 24.7745 39.3877 29.2752 37.2302 31.9101L36.3963 32.928L36.9137 34.1273C37.1985 34.787 37.5827 36.4604 37.7674 37.8462C37.9521 39.232 38.1254 40.366 38.1525 40.3663C38.1792 40.3666 42.216 40.3002 47.1225 40.2187L56.0439 40.0704L54.5082 36.809C50.8579 29.0558 46.3357 23.7065 39.4375 18.982C37.8779 17.9134 36.6016 16.9448 36.6016 16.8288C36.6016 16.4301 37.3006 15.9065 37.8328 15.9065C39.3083 15.9065 44.6752 19.4472 47.8767 22.5324C51.6691 26.1873 56.6303 33.4184 58.5456 38.0825L59.4338 40.2454L63.1196 40.3592L66.8053 40.4731L66.4644 39.6734C65.8146 38.1495 63.5561 34.13 62.1062 31.9169C56.47 23.3158 48.6579 16.8392 40.8598 14.303C39.0777 13.7237 36.5917 13.0302 35.3353 12.7625C33.1986 12.3068 32.9177 12.1532 30.9916 10.3846C28.6319 8.21817 27.7201 7.93384 28.0185 9.4578ZM23.6155 10.4365C23.7865 11.7079 24.9764 14.2114 25.5951 14.6013C25.9996 14.856 27.0034 13.8411 27.0034 13.1773C27.0034 12.2931 26.2527 11.0366 25.1175 10.0205C23.6751 8.72962 23.3965 8.8067 23.6155 10.4365ZM25.5209 16.8526C24.8432 18.206 19.2407 27.6273 17.2635 30.7375C15.258 33.8928 15.0478 34.4267 15.2566 35.8395C15.9337 40.4253 20.3358 42.0409 23.3238 38.8L24.1521 37.9013L23.3965 36.7675C22.48 35.393 22.4512 34.8516 23.2543 34.1125C23.8636 33.5518 23.8749 33.5556 24.8121 34.6595C25.7085 35.7153 26.4217 36.0889 26.4217 35.5027C26.4217 34.921 29.2549 33.1818 30.5166 32.9888C31.2321 32.8796 32.2865 32.4936 32.8595 32.131C33.9607 31.4349 35.7291 29.5204 35.7291 29.0247C35.7291 28.8631 35.9978 28.1115 36.3265 27.3543C36.8937 26.047 36.9015 25.889 36.4792 24.2082C35.6497 20.9086 34.2027 19.373 31.0477 18.4453C29.3128 17.9351 26.7125 16.4161 26.7125 15.913C26.7125 15.213 26.0994 15.6963 25.5209 16.8526ZM29.6999 22.3507C29.6112 22.587 28.7529 23.3629 27.7931 24.0751C26.4208 25.0926 25.9354 25.3085 25.5238 25.0837C25.2356 24.9266 24.9296 24.682 24.8435 24.5403C24.5599 24.0724 26.3519 21.9202 27.6345 21.1884L28.894 20.4697L29.3779 21.1956C29.6441 21.5946 29.7889 22.1144 29.6999 22.3507ZM19.8966 34.706C19.9932 35.0986 19.9257 35.699 19.7465 36.0402C19.1639 37.1497 17.696 36.6389 17.696 35.3266C17.696 33.9355 19.5764 33.405 19.8966 34.706Z" fill="black"/>
</g>
<g filter="url(#filter1_dd_3_57)">
<path d="M78.2879 34.5V15.4044H91.6026V19.1527H82.9033V23.0688H90.9219V26.8263H82.9033V30.7517H91.6026V34.5H78.2879ZM108.095 27.6375H111.825L113.41 29.6608L115.489 32.0478L118.687 35.9918H114.51L112.272 33.3159L110.948 31.4138L108.095 27.6375ZM118.818 24.9522C118.818 27.0532 118.414 28.8341 117.606 30.2949C116.798 31.7556 115.704 32.8652 114.324 33.6235C112.95 34.3819 111.408 34.7611 109.699 34.7611C107.983 34.7611 106.439 34.3788 105.065 33.6142C103.691 32.8497 102.6 31.7401 101.792 30.2855C100.99 28.8248 100.589 27.047 100.589 24.9522C100.589 22.8512 100.99 21.0703 101.792 19.6096C102.6 18.1488 103.691 17.0392 105.065 16.2809C106.439 15.5225 107.983 15.1434 109.699 15.1434C111.408 15.1434 112.95 15.5225 114.324 16.2809C115.704 17.0392 116.798 18.1488 117.606 19.6096C118.414 21.0703 118.818 22.8512 118.818 24.9522ZM114.1 24.9522C114.1 23.709 113.923 22.6585 113.568 21.8007C113.22 20.9429 112.717 20.2933 112.058 19.852C111.405 19.4106 110.619 19.19 109.699 19.19C108.785 19.19 107.999 19.4106 107.34 19.852C106.681 20.2933 106.174 20.9429 105.82 21.8007C105.472 22.6585 105.298 23.709 105.298 24.9522C105.298 26.1954 105.472 27.2459 105.82 28.1037C106.174 28.9615 106.681 29.6111 107.34 30.0524C107.999 30.4938 108.785 30.7145 109.699 30.7145C110.619 30.7145 111.405 30.4938 112.058 30.0524C112.717 29.6111 113.22 28.9615 113.568 28.1037C113.923 27.2459 114.1 26.1954 114.1 24.9522ZM139.392 15.4044H143.998V27.7214C143.998 29.1449 143.659 30.385 142.982 31.4417C142.304 32.4922 141.359 33.3065 140.147 33.8846C138.935 34.4565 137.527 34.7424 135.924 34.7424C134.301 34.7424 132.884 34.4565 131.672 33.8846C130.46 33.3065 129.518 32.4922 128.847 31.4417C128.175 30.385 127.84 29.1449 127.84 27.7214V15.4044H132.455V27.3205C132.455 27.9794 132.598 28.5668 132.884 29.0828C133.176 29.5987 133.583 30.0027 134.105 30.2949C134.628 30.587 135.234 30.7331 135.924 30.7331C136.614 30.7331 137.217 30.587 137.732 30.2949C138.255 30.0027 138.662 29.5987 138.954 29.0828C139.246 28.5668 139.392 27.9794 139.392 27.3205V15.4044ZM157.808 15.4044V34.5H153.192V15.4044H157.808ZM177.329 21.1294C177.266 20.4456 176.99 19.9141 176.499 19.535C176.014 19.1496 175.321 18.9569 174.419 18.9569C173.823 18.9569 173.325 19.0346 172.928 19.19C172.53 19.3454 172.231 19.5598 172.032 19.8333C171.834 20.1006 171.731 20.4083 171.725 20.7564C171.712 21.0423 171.768 21.2941 171.893 21.5117C172.023 21.7292 172.21 21.9219 172.452 22.0897C172.701 22.2514 172.999 22.3943 173.347 22.5186C173.695 22.643 174.087 22.7517 174.522 22.845L176.163 23.2179C177.108 23.4231 177.941 23.6966 178.662 24.0385C179.389 24.3803 179.998 24.7875 180.489 25.2599C180.987 25.7323 181.363 26.2762 181.618 26.8916C181.872 27.507 182.003 28.197 182.009 28.9615C182.003 30.1674 181.698 31.2024 181.095 32.0664C180.492 32.9305 179.625 33.5925 178.494 34.0524C177.369 34.5124 176.011 34.7424 174.419 34.7424C172.822 34.7424 171.43 34.5031 170.242 34.0245C169.055 33.5458 168.132 32.8186 167.473 31.8427C166.814 30.8667 166.475 29.6329 166.457 28.141H170.876C170.914 28.7564 171.078 29.2692 171.37 29.6795C171.663 30.0897 172.064 30.4005 172.573 30.6119C173.089 30.8232 173.686 30.9289 174.363 30.9289C174.985 30.9289 175.513 30.845 175.949 30.6772C176.39 30.5093 176.729 30.2762 176.965 29.9779C177.201 29.6795 177.322 29.3376 177.329 28.9522C177.322 28.5917 177.21 28.284 176.993 28.0291C176.775 27.7681 176.44 27.5443 175.986 27.3578C175.538 27.1651 174.966 26.988 174.27 26.8263L172.275 26.3601C170.621 25.981 169.319 25.3687 168.368 24.5233C167.417 23.6717 166.945 22.5218 166.951 21.0734C166.945 19.8924 167.262 18.8574 167.902 17.9685C168.542 17.0796 169.428 16.3866 170.559 15.8893C171.691 15.392 172.98 15.1434 174.429 15.1434C175.908 15.1434 177.192 15.3951 178.28 15.8986C179.374 16.3959 180.222 17.0952 180.825 17.9965C181.428 18.8978 181.736 19.9421 181.748 21.1294H177.329ZM190.642 34.5V15.4044H198.53C199.96 15.4044 201.193 15.6841 202.231 16.2436C203.276 16.7968 204.081 17.5707 204.646 18.5653C205.212 19.5536 205.495 20.7036 205.495 22.0152C205.495 23.3329 205.206 24.486 204.628 25.4744C204.056 26.4565 203.238 27.2179 202.176 27.7587C201.113 28.2995 199.851 28.5699 198.39 28.5699H193.523V24.9336H197.532C198.228 24.9336 198.81 24.8124 199.276 24.5699C199.748 24.3275 200.106 23.9887 200.348 23.5536C200.59 23.1123 200.712 22.5995 200.712 22.0152C200.712 21.4246 200.59 20.9149 200.348 20.486C200.106 20.0509 199.748 19.7152 199.276 19.479C198.803 19.2428 198.222 19.1247 197.532 19.1247H195.257V34.5H190.642ZM215.894 34.5H210.934L217.377 15.4044H223.521L229.964 34.5H225.004L220.519 20.2156H220.37L215.894 34.5ZM215.232 26.9848H225.601V30.4907H215.232V26.9848ZM254.758 22.3228H250.096C250.033 21.8442 249.906 21.4122 249.713 21.0268C249.521 20.6414 249.266 20.312 248.949 20.0385C248.632 19.765 248.256 19.5567 247.821 19.4138C247.392 19.2646 246.916 19.19 246.394 19.19C245.468 19.19 244.669 19.4169 243.998 19.8706C243.333 20.3244 242.82 20.9802 242.459 21.838C242.105 22.6958 241.928 23.7339 241.928 24.9522C241.928 26.2203 242.108 27.2832 242.469 28.141C242.835 28.9926 243.348 29.636 244.007 30.0711C244.672 30.5 245.458 30.7145 246.366 30.7145C246.876 30.7145 247.339 30.6492 247.755 30.5186C248.178 30.3881 248.548 30.1985 248.865 29.9499C249.188 29.695 249.452 29.3873 249.657 29.0268C249.869 28.6601 250.015 28.2467 250.096 27.7867L254.758 27.8147C254.677 28.6601 254.431 29.493 254.021 30.3135C253.617 31.134 253.061 31.8831 252.352 32.5606C251.643 33.2319 250.779 33.7665 249.76 34.1643C248.747 34.5622 247.584 34.7611 246.273 34.7611C244.545 34.7611 242.997 34.3819 241.629 33.6235C240.268 32.859 239.193 31.7463 238.403 30.2855C237.614 28.8248 237.219 27.047 237.219 24.9522C237.219 22.8512 237.62 21.0703 238.422 19.6096C239.224 18.1488 240.309 17.0392 241.676 16.2809C243.044 15.5225 244.576 15.1434 246.273 15.1434C247.429 15.1434 248.498 15.305 249.48 15.6282C250.462 15.9452 251.326 16.4114 252.072 17.0268C252.818 17.636 253.424 18.385 253.89 19.2739C254.357 20.1628 254.646 21.1791 254.758 22.3228ZM263.7 34.5V15.4044H277.015V19.1527H268.316V23.0688H276.334V26.8263H268.316V30.7517H277.015V34.5H263.7Z" fill="black"/>
</g>
<defs>
<filter id="filter0_dd_3_57" x="0.423151" y="0.294871" width="81.1513" height="61.5385" filterUnits="userSpaceOnUse" color-interpolation-filters="sRGB">
<feFlood flood-opacity="0" result="BackgroundImageFix"/>
<feColorMatrix in="SourceAlpha" type="matrix" values="0 0 0 0 0 0 0 0 0 0 0 0 0 0 0 0 0 0 127 0" result="hardAlpha"/>
<feOffset dy="3.28205"/>
<feGaussianBlur stdDeviation="1.64103"/>
<feColorMatrix type="matrix" values="0 0 0 0 0 0 0 0 0 0 0 0 0 0 0 0 0 0 0.3 0"/>
<feBlend mode="normal" in2="BackgroundImageFix" result="effect1_dropShadow_3_57"/>
<feColorMatrix in="SourceAlpha" type="matrix" values="0 0 0 0 0 0 0 0 0 0 0 0 0 0 0 0 0 0 127 0" result="hardAlpha"/>
<feMorphology radius="4.92308" operator="dilate" in="SourceAlpha" result="effect2_dropShadow_3_57"/>
<feOffset dy="6.5641"/>
<feGaussianBlur stdDeviation="4.92308"/>
<feColorMatrix type="matrix" values="0 0 0 0 0 0 0 0 0 0 0 0 0 0 0 0 0 0 0.15 0"/>
<feBlend mode="normal" in2="effect1_dropShadow_3_57" result="effect2_dropShadow_3_57"/>
<feBlend mode="normal" in="SourceGraphic" in2="effect2_dropShadow_3_57" result="shape"/>
</filter>
<filter id="filter1_dd_3_57" x="75.0058" y="12.6818" width="205.291" height="27.4126" filterUnits="userSpaceOnUse" color-interpolation-filters="sRGB">
<feFlood flood-opacity="0" result="BackgroundImageFix"/>
<feColorMatrix in="SourceAlpha" type="matrix" values="0 0 0 0 0 0 0 0 0 0 0 0 0 0 0 0 0 0 127 0" result="hardAlpha"/>
<feOffset dy="0.820513"/>
<feGaussianBlur stdDeviation="0.820513"/>
<feColorMatrix type="matrix" values="0 0 0 0 0 0 0 0 0 0 0 0 0 0 0 0 0 0 0.3 0"/>
<feBlend mode="normal" in2="BackgroundImageFix" result="effect1_dropShadow_3_57"/>
<feColorMatrix in="SourceAlpha" type="matrix" values="0 0 0 0 0 0 0 0 0 0 0 0 0 0 0 0 0 0 127 0" result="hardAlpha"/>
<feMorphology radius="0.820513" operator="dilate" in="SourceAlpha" result="effect2_dropShadow_3_57"/>
<feOffset dy="0.820513"/>
<feGaussianBlur stdDeviation="1.23077"/>
<feColorMatrix type="matrix" values="0 0 0 0 0 0 0 0 0 0 0 0 0 0 0 0 0 0 0.15 0"/>
<feBlend mode="normal" in2="effect1_dropShadow_3_57" result="effect2_dropShadow_3_57"/>
<feBlend mode="normal" in="SourceGraphic" in2="effect2_dropShadow_3_57" result="shape"/>
</filter>
</defs>
</svg>
