<svg width="291" height="63" viewBox="0 0 291 63" fill="none" xmlns="http://www.w3.org/2000/svg">
<g filter="url(#filter0_dd_3_50)">
<path fill-rule="evenodd" clip-rule="evenodd" d="M27.8261 9.9578C28.8066 14.9667 29.9424 16.4524 33.5973 17.5091C35.5501 18.0739 36.7836 19.315 38.0907 22.0309C39.6523 25.2745 39.1954 29.7752 37.0378 32.4101L36.2039 33.428L36.7213 34.6273C37.0061 35.287 37.3903 36.9604 37.575 38.3462C37.7597 39.732 37.933 40.866 37.9601 40.8663C37.9869 40.8666 42.0236 40.8002 46.9301 40.7187L55.8515 40.5704L54.3158 37.309C50.6656 29.5558 46.1433 24.2065 39.2451 19.482C37.6855 18.4134 36.4093 17.4448 36.4093 17.3288C36.4093 16.9301 37.1082 16.4065 37.6404 16.4065C39.116 16.4065 44.4828 19.9472 47.6843 23.0324C51.4768 26.6873 56.4379 33.9184 58.3532 38.5825L59.2415 40.7454L62.9272 40.8592L66.6129 40.9731L66.272 40.1734C65.6223 38.6495 63.3638 34.63 61.9138 32.4169C56.2776 23.8158 48.4655 17.3392 40.6674 14.803C38.8853 14.2237 36.3994 13.5302 35.1429 13.2625C33.0062 12.8068 32.7253 12.6532 30.7992 10.8846C28.4395 8.71817 27.5277 8.43384 27.8261 9.9578ZM23.4231 10.9365C23.5941 12.2079 24.784 14.7114 25.4027 15.1013C25.8073 15.356 26.811 14.3411 26.811 13.6773C26.811 12.7931 26.0603 11.5366 24.9251 10.5205C23.4827 9.22962 23.2041 9.3067 23.4231 10.9365ZM25.3285 17.3526C24.6508 18.706 19.0484 28.1273 17.0711 31.2375C15.0657 34.3928 14.8554 34.9267 15.0642 36.3395C15.7413 40.9253 20.1434 42.5409 23.1314 39.3L23.9597 38.4013L23.2041 37.2675C22.2876 35.893 22.2588 35.3516 23.0619 34.6125C23.6712 34.0518 23.6826 34.0556 24.6197 35.1595C25.5161 36.2153 26.2293 36.5889 26.2293 36.0027C26.2293 35.421 29.0625 33.6818 30.3243 33.4888C31.0398 33.3796 32.0941 32.9936 32.6671 32.631C33.7683 31.9349 35.5367 30.0204 35.5367 29.5247C35.5367 29.3631 35.8054 28.6115 36.1341 27.8543C36.7013 26.547 36.7091 26.389 36.2868 24.7082C35.4573 21.4086 34.0103 19.873 30.8554 18.9453C29.1204 18.4351 26.5202 16.9161 26.5202 16.413C26.5202 15.713 25.907 16.1963 25.3285 17.3526ZM29.5075 22.8507C29.4188 23.087 28.5605 23.8629 27.6007 24.5751C26.2284 25.5926 25.743 25.8085 25.3314 25.5837C25.0432 25.4266 24.7372 25.182 24.6511 25.0403C24.3675 24.5724 26.1595 22.4202 27.4422 21.6884L28.7016 20.9697L29.1856 21.6956C29.4517 22.0946 29.5965 22.6144 29.5075 22.8507ZM19.7042 35.206C19.8008 35.5986 19.7333 36.199 19.5542 36.5402C18.9716 37.6497 17.5036 37.1389 17.5036 35.8266C17.5036 34.4355 19.384 33.905 19.7042 35.206Z" fill="black"/>
</g>
<line x1="77.2795" y1="11.6642" x2="77.3589" y2="38.3309" stroke="black" stroke-width="1.64103"/>
<g filter="url(#filter1_dd_3_50)">
<path d="M88.0213 35V15.9044H101.336V19.6527H92.6367V23.5688H100.655V27.3263H92.6367V31.2517H101.336V35H88.0213ZM117.829 28.1375H121.558L123.143 30.1608L125.223 32.5478L128.421 36.4918H124.244L122.006 33.8159L120.682 31.9138L117.829 28.1375ZM128.551 25.4522C128.551 27.5532 128.147 29.3341 127.339 30.7949C126.531 32.2556 125.437 33.3652 124.057 34.1235C122.683 34.8819 121.142 35.2611 119.432 35.2611C117.717 35.2611 116.172 34.8788 114.798 34.1142C113.425 33.3497 112.334 32.2401 111.526 30.7855C110.724 29.3248 110.323 27.547 110.323 25.4522C110.323 23.3512 110.724 21.5703 111.526 20.1096C112.334 18.6488 113.425 17.5392 114.798 16.7809C116.172 16.0225 117.717 15.6434 119.432 15.6434C121.142 15.6434 122.683 16.0225 124.057 16.7809C125.437 17.5392 126.531 18.6488 127.339 20.1096C128.147 21.5703 128.551 23.3512 128.551 25.4522ZM123.833 25.4522C123.833 24.209 123.656 23.1585 123.302 22.3007C122.954 21.4429 122.45 20.7933 121.791 20.352C121.139 19.9106 120.352 19.69 119.432 19.69C118.519 19.69 117.732 19.9106 117.073 20.352C116.414 20.7933 115.908 21.4429 115.554 22.3007C115.205 23.1585 115.031 24.209 115.031 25.4522C115.031 26.6954 115.205 27.7459 115.554 28.6037C115.908 29.4615 116.414 30.1111 117.073 30.5524C117.732 30.9938 118.519 31.2145 119.432 31.2145C120.352 31.2145 121.139 30.9938 121.791 30.5524C122.45 30.1111 122.954 29.4615 123.302 28.6037C123.656 27.7459 123.833 26.6954 123.833 25.4522ZM149.126 15.9044H153.732V28.2214C153.732 29.6449 153.393 30.885 152.715 31.9417C152.038 32.9922 151.093 33.8065 149.881 34.3846C148.669 34.9565 147.261 35.2424 145.657 35.2424C144.035 35.2424 142.617 34.9565 141.405 34.3846C140.193 33.8065 139.251 32.9922 138.58 31.9417C137.909 30.885 137.573 29.6449 137.573 28.2214V15.9044H142.188V27.8205C142.188 28.4794 142.331 29.0668 142.617 29.5828C142.91 30.0987 143.317 30.5027 143.839 30.7949C144.361 31.087 144.967 31.2331 145.657 31.2331C146.347 31.2331 146.95 31.087 147.466 30.7949C147.988 30.5027 148.395 30.0987 148.687 29.5828C148.979 29.0668 149.126 28.4794 149.126 27.8205V15.9044ZM167.541 15.9044V35H162.926V15.9044H167.541ZM187.062 21.6294C187 20.9456 186.723 20.4141 186.232 20.035C185.747 19.6496 185.054 19.4569 184.153 19.4569C183.556 19.4569 183.059 19.5346 182.661 19.69C182.263 19.8454 181.965 20.0598 181.766 20.3333C181.567 20.6006 181.464 20.9083 181.458 21.2564C181.446 21.5423 181.502 21.7941 181.626 22.0117C181.757 22.2292 181.943 22.4219 182.185 22.5897C182.434 22.7514 182.732 22.8943 183.081 23.0186C183.429 23.143 183.82 23.2517 184.255 23.345L185.896 23.7179C186.841 23.9231 187.674 24.1966 188.395 24.5385C189.123 24.8803 189.732 25.2875 190.223 25.7599C190.72 26.2323 191.096 26.7762 191.351 27.3916C191.606 28.007 191.736 28.697 191.743 29.4615C191.736 30.6674 191.432 31.7024 190.829 32.5664C190.226 33.4305 189.359 34.0925 188.227 34.5524C187.102 35.0124 185.744 35.2424 184.153 35.2424C182.555 35.2424 181.163 35.0031 179.976 34.5245C178.788 34.0458 177.865 33.3186 177.206 32.3427C176.548 31.3667 176.209 30.1329 176.19 28.641H180.61C180.647 29.2564 180.812 29.7692 181.104 30.1795C181.396 30.5897 181.797 30.9005 182.307 31.1119C182.823 31.3232 183.419 31.4289 184.097 31.4289C184.718 31.4289 185.247 31.345 185.682 31.1772C186.123 31.0093 186.462 30.7762 186.698 30.4779C186.934 30.1795 187.056 29.8376 187.062 29.4522C187.056 29.0917 186.944 28.784 186.726 28.5291C186.509 28.2681 186.173 28.0443 185.719 27.8578C185.272 27.6651 184.7 27.488 184.004 27.3263L182.008 26.8601C180.355 26.481 179.053 25.8687 178.102 25.0233C177.15 24.1717 176.678 23.0218 176.684 21.5734C176.678 20.3924 176.995 19.3574 177.635 18.4685C178.276 17.5796 179.161 16.8866 180.293 16.3893C181.424 15.892 182.714 15.6434 184.162 15.6434C185.642 15.6434 186.925 15.8951 188.013 16.3986C189.107 16.8959 189.955 17.5952 190.558 18.4965C191.161 19.3978 191.469 20.4421 191.482 21.6294H187.062ZM200.375 35V15.9044H208.263C209.693 15.9044 210.927 16.1841 211.965 16.7436C213.009 17.2968 213.814 18.0707 214.38 19.0653C214.945 20.0536 215.228 21.2036 215.228 22.5152C215.228 23.8329 214.939 24.986 214.361 25.9744C213.789 26.9565 212.972 27.7179 211.909 28.2587C210.846 28.7995 209.584 29.0699 208.123 29.0699H203.256V25.4336H207.266C207.962 25.4336 208.543 25.3124 209.009 25.0699C209.482 24.8275 209.839 24.4887 210.081 24.0536C210.324 23.6123 210.445 23.0995 210.445 22.5152C210.445 21.9246 210.324 21.4149 210.081 20.986C209.839 20.5509 209.482 20.2152 209.009 19.979C208.537 19.7428 207.956 19.6247 207.266 19.6247H204.99V35H200.375ZM225.628 35H220.667L227.11 15.9044H233.255L239.698 35H234.737L230.252 20.7156H230.103L225.628 35ZM224.966 27.4848H235.334V30.9907H224.966V27.4848ZM264.491 22.8228H259.829C259.767 22.3442 259.639 21.9122 259.447 21.5268C259.254 21.1414 258.999 20.812 258.682 20.5385C258.365 20.265 257.989 20.0567 257.554 19.9138C257.125 19.7646 256.65 19.69 256.127 19.69C255.201 19.69 254.402 19.9169 253.731 20.3706C253.066 20.8244 252.553 21.4802 252.193 22.338C251.838 23.1958 251.661 24.2339 251.661 25.4522C251.661 26.7203 251.841 27.7832 252.202 28.641C252.569 29.4926 253.082 30.136 253.74 30.5711C254.406 31 255.192 31.2145 256.099 31.2145C256.609 31.2145 257.072 31.1492 257.489 31.0186C257.911 30.8881 258.281 30.6985 258.598 30.4499C258.921 30.195 259.186 29.8873 259.391 29.5268C259.602 29.1601 259.748 28.7467 259.829 28.2867L264.491 28.3147C264.41 29.1601 264.165 29.993 263.754 30.8135C263.35 31.634 262.794 32.3831 262.085 33.0606C261.377 33.7319 260.513 34.2665 259.493 34.6643C258.48 35.0622 257.318 35.2611 256.006 35.2611C254.278 35.2611 252.73 34.8819 251.363 34.1235C250.002 33.359 248.926 32.2463 248.137 30.7855C247.347 29.3248 246.953 27.547 246.953 25.4522C246.953 23.3512 247.353 21.5703 248.155 20.1096C248.957 18.6488 250.042 17.5392 251.409 16.7809C252.777 16.0225 254.309 15.6434 256.006 15.6434C257.162 15.6434 258.232 15.805 259.214 16.1282C260.196 16.4452 261.06 16.9114 261.806 17.5268C262.552 18.136 263.158 18.885 263.624 19.7739C264.09 20.6628 264.379 21.6791 264.491 22.8228ZM273.434 35V15.9044H286.748V19.6527H278.049V23.5688H286.068V27.3263H278.049V31.2517H286.748V35H273.434Z" fill="black"/>
</g>
<defs>
<filter id="filter0_dd_3_50" x="0.230769" y="0.794871" width="81.1513" height="61.5385" filterUnits="userSpaceOnUse" color-interpolation-filters="sRGB">
<feFlood flood-opacity="0" result="BackgroundImageFix"/>
<feColorMatrix in="SourceAlpha" type="matrix" values="0 0 0 0 0 0 0 0 0 0 0 0 0 0 0 0 0 0 127 0" result="hardAlpha"/>
<feOffset dy="3.28205"/>
<feGaussianBlur stdDeviation="1.64103"/>
<feColorMatrix type="matrix" values="0 0 0 0 0 0 0 0 0 0 0 0 0 0 0 0 0 0 0.3 0"/>
<feBlend mode="normal" in2="BackgroundImageFix" result="effect1_dropShadow_3_50"/>
<feColorMatrix in="SourceAlpha" type="matrix" values="0 0 0 0 0 0 0 0 0 0 0 0 0 0 0 0 0 0 127 0" result="hardAlpha"/>
<feMorphology radius="4.92308" operator="dilate" in="SourceAlpha" result="effect2_dropShadow_3_50"/>
<feOffset dy="6.5641"/>
<feGaussianBlur stdDeviation="4.92308"/>
<feColorMatrix type="matrix" values="0 0 0 0 0 0 0 0 0 0 0 0 0 0 0 0 0 0 0.15 0"/>
<feBlend mode="normal" in2="effect1_dropShadow_3_50" result="effect2_dropShadow_3_50"/>
<feBlend mode="normal" in="SourceGraphic" in2="effect2_dropShadow_3_50" result="shape"/>
</filter>
<filter id="filter1_dd_3_50" x="84.7392" y="13.1818" width="205.291" height="27.4126" filterUnits="userSpaceOnUse" color-interpolation-filters="sRGB">
<feFlood flood-opacity="0" result="BackgroundImageFix"/>
<feColorMatrix in="SourceAlpha" type="matrix" values="0 0 0 0 0 0 0 0 0 0 0 0 0 0 0 0 0 0 127 0" result="hardAlpha"/>
<feOffset dy="0.820513"/>
<feGaussianBlur stdDeviation="0.820513"/>
<feColorMatrix type="matrix" values="0 0 0 0 0 0 0 0 0 0 0 0 0 0 0 0 0 0 0.3 0"/>
<feBlend mode="normal" in2="BackgroundImageFix" result="effect1_dropShadow_3_50"/>
<feColorMatrix in="SourceAlpha" type="matrix" values="0 0 0 0 0 0 0 0 0 0 0 0 0 0 0 0 0 0 127 0" result="hardAlpha"/>
<feMorphology radius="0.820513" operator="dilate" in="SourceAlpha" result="effect2_dropShadow_3_50"/>
<feOffset dy="0.820513"/>
<feGaussianBlur stdDeviation="1.23077"/>
<feColorMatrix type="matrix" values="0 0 0 0 0 0 0 0 0 0 0 0 0 0 0 0 0 0 0.15 0"/>
<feBlend mode="normal" in2="effect1_dropShadow_3_50" result="effect2_dropShadow_3_50"/>
<feBlend mode="normal" in="SourceGraphic" in2="effect2_dropShadow_3_50" result="shape"/>
</filter>
</defs>
</svg>
