<svg width="74" height="54" viewBox="0 0 74 54" fill="none" xmlns="http://www.w3.org/2000/svg">
<g filter="url(#filter0_dd_3_112)">
<path fill-rule="evenodd" clip-rule="evenodd" d="M24.1125 7.35208C25.1072 12.361 26.2596 13.8467 29.9676 14.9034C31.9488 15.4682 33.2003 16.7093 34.5264 19.4252C36.1107 22.6688 35.6471 27.1695 33.4582 29.8044L32.6122 30.8223L33.1371 32.0216C33.426 32.6813 33.8158 34.3547 34.0032 35.7404C34.1906 37.1262 34.3665 38.2603 34.3939 38.2606C34.4211 38.2609 38.5166 38.1945 43.4944 38.113L52.5456 37.9647L50.9875 34.7033C47.2842 26.9501 42.6962 21.6008 35.6976 16.8762C34.1154 15.8077 32.8205 14.8391 32.8205 14.7231C32.8205 14.3244 33.5296 13.8008 34.0696 13.8008C35.5666 13.8008 41.0115 17.3414 44.2595 20.4267C48.1072 24.0816 53.1405 31.3127 55.0836 35.9768L55.9848 38.1396L59.7242 38.2535L63.4635 38.3674L63.1176 37.5677C62.4584 36.0438 60.1671 32.0242 58.6961 29.8112C52.9779 21.21 45.0521 14.7335 37.1406 12.1973C35.3326 11.618 32.8105 10.9245 31.5357 10.6568C29.368 10.2011 29.0829 10.0475 27.1289 8.27891C24.7348 6.11246 23.8097 5.82812 24.1125 7.35208ZM19.6455 8.3308C19.819 9.60215 21.0262 12.1057 21.6538 12.4956C22.0643 12.7503 23.0827 11.7354 23.0827 11.0716C23.0827 10.1874 22.321 8.9309 21.1693 7.91482C19.706 6.6239 19.4233 6.70099 19.6455 8.3308ZM21.5786 14.7469C20.891 16.1003 15.2071 25.5216 13.2011 28.6318C11.1665 31.787 10.9531 32.321 11.165 33.7338C11.852 38.3196 16.3181 39.9352 19.3495 36.6943L20.1899 35.7956L19.4233 34.6618C18.4935 33.2873 18.4643 32.7459 19.279 32.0067C19.8972 31.4461 19.9087 31.4499 20.8595 32.5538C21.7689 33.6096 22.4925 33.9832 22.4925 33.397C22.4925 32.8153 25.3669 31.0761 26.647 30.883C27.3729 30.7739 28.4426 30.3879 29.0239 30.0253C30.1411 29.3291 31.9353 27.4147 31.9353 26.919C31.9353 26.7574 32.2079 26.0058 32.5414 25.2485C33.1168 23.9413 33.1247 23.7833 32.6963 22.1025C31.8547 18.8028 30.3866 17.2673 27.1858 16.3396C25.4256 15.8293 22.7876 14.3104 22.7876 13.8073C22.7876 13.1073 22.1655 13.5905 21.5786 14.7469ZM25.8184 20.245C25.7284 20.4813 24.8576 21.2572 23.8838 21.9694C22.4916 22.9869 21.9991 23.2028 21.5816 22.978C21.2891 22.8209 20.9787 22.5763 20.8913 22.4346C20.6036 21.9667 22.4217 19.8145 23.723 19.0827L25.0007 18.364L25.4917 19.0898C25.7617 19.4889 25.9087 20.0087 25.8184 20.245ZM15.8725 32.6003C15.9705 32.9929 15.902 33.5933 15.7202 33.9345C15.1292 35.044 13.6399 34.5331 13.6399 33.2209C13.6399 31.8297 15.5476 31.2993 15.8725 32.6003Z" fill="black"/>
</g>
<defs>
<filter id="filter0_dd_3_112" x="0.627128" y="0.576106" width="73.309" height="52.9455" filterUnits="userSpaceOnUse" color-interpolation-filters="sRGB">
<feFlood flood-opacity="0" result="BackgroundImageFix"/>
<feColorMatrix in="SourceAlpha" type="matrix" values="0 0 0 0 0 0 0 0 0 0 0 0 0 0 0 0 0 0 127 0" result="hardAlpha"/>
<feOffset dy="2.32727"/>
<feGaussianBlur stdDeviation="1.16364"/>
<feColorMatrix type="matrix" values="0 0 0 0 0 0 0 0 0 0 0 0 0 0 0 0 0 0 0.3 0"/>
<feBlend mode="normal" in2="BackgroundImageFix" result="effect1_dropShadow_3_112"/>
<feColorMatrix in="SourceAlpha" type="matrix" values="0 0 0 0 0 0 0 0 0 0 0 0 0 0 0 0 0 0 127 0" result="hardAlpha"/>
<feMorphology radius="3.49091" operator="dilate" in="SourceAlpha" result="effect2_dropShadow_3_112"/>
<feOffset dy="4.65454"/>
<feGaussianBlur stdDeviation="3.49091"/>
<feColorMatrix type="matrix" values="0 0 0 0 0 0 0 0 0 0 0 0 0 0 0 0 0 0 0.15 0"/>
<feBlend mode="normal" in2="effect1_dropShadow_3_112" result="effect2_dropShadow_3_112"/>
<feBlend mode="normal" in="SourceGraphic" in2="effect2_dropShadow_3_112" result="shape"/>
</filter>
</defs>
</svg>
