<svg width="147" height="36" viewBox="0 0 147 36" fill="none" xmlns="http://www.w3.org/2000/svg">
<g filter="url(#filter0_dd_3_95)">
<path d="M3.04225 18V4.4595H12.4836V7.11736H6.31498V9.89421H12.0009V12.5587H6.31498V15.3421H12.4836V18H3.04225ZM24.1784 13.1339H26.823L27.947 14.5686L29.4214 16.2612L31.6891 19.0579H28.7271L27.1404 17.1603L26.2015 15.8116L24.1784 13.1339ZM31.7817 11.2298C31.7817 12.7196 31.4952 13.9824 30.9222 15.0182C30.3492 16.054 29.5734 16.8408 28.5949 17.3785C27.6208 17.9163 26.5277 18.1851 25.3156 18.1851C24.099 18.1851 23.0037 17.914 22.0296 17.3719C21.0555 16.8298 20.282 16.043 19.709 15.0116C19.1404 13.9758 18.8561 12.7152 18.8561 11.2298C18.8561 9.73994 19.1404 8.47714 19.709 7.44132C20.282 6.40551 21.0555 5.61873 22.0296 5.08099C23.0037 4.54325 24.099 4.27438 25.3156 4.27438C26.5277 4.27438 27.6208 4.54325 28.5949 5.08099C29.5734 5.61873 30.3492 6.40551 30.9222 7.44132C31.4952 8.47714 31.7817 9.73994 31.7817 11.2298ZM28.4362 11.2298C28.4362 10.3482 28.3106 9.60331 28.0594 8.99504C27.8125 8.38678 27.4555 7.92617 26.9883 7.61322C26.5255 7.30028 25.9679 7.1438 25.3156 7.1438C24.6676 7.1438 24.1101 7.30028 23.6428 7.61322C23.1756 7.92617 22.8164 8.38678 22.5652 8.99504C22.3183 9.60331 22.1949 10.3482 22.1949 11.2298C22.1949 12.1113 22.3183 12.8562 22.5652 13.4645C22.8164 14.0727 23.1756 14.5333 23.6428 14.8463C24.1101 15.1592 24.6676 15.3157 25.3156 15.3157C25.9679 15.3157 26.5255 15.1592 26.9883 14.8463C27.4555 14.5333 27.8125 14.0727 28.0594 13.4645C28.3106 12.8562 28.4362 12.1113 28.4362 11.2298ZM46.3707 4.4595H49.6368V13.1934C49.6368 14.2028 49.3966 15.0821 48.9162 15.8314C48.4357 16.5763 47.7658 17.1537 46.9062 17.5636C46.0467 17.9691 45.0484 18.1719 43.9112 18.1719C42.7608 18.1719 41.7558 17.9691 40.8963 17.5636C40.0368 17.1537 39.3691 16.5763 38.893 15.8314C38.417 15.0821 38.179 14.2028 38.179 13.1934V4.4595H41.4517V12.9091C41.4517 13.3763 41.5531 13.7928 41.7558 14.1587C41.963 14.5245 42.2517 14.811 42.622 15.0182C42.9922 15.2253 43.422 15.3289 43.9112 15.3289C44.4005 15.3289 44.828 15.2253 45.1939 15.0182C45.5641 14.811 45.8528 14.5245 46.06 14.1587C46.2671 13.7928 46.3707 13.3763 46.3707 12.9091V4.4595ZM59.4292 4.4595V18H56.1564V4.4595H59.4292ZM73.2711 8.51901C73.227 8.03416 73.0309 7.6573 72.6826 7.38843C72.3388 7.11515 71.8474 6.97851 71.2083 6.97851C70.7851 6.97851 70.4325 7.03361 70.1504 7.1438C69.8683 7.25399 69.6567 7.40606 69.5157 7.6C69.3747 7.78953 69.3019 8.00771 69.2975 8.25455C69.2887 8.4573 69.3284 8.63581 69.4165 8.79008C69.5091 8.94435 69.6413 9.08099 69.8132 9.2C69.9895 9.3146 70.2011 9.41598 70.4479 9.50413C70.6948 9.59229 70.9724 9.66942 71.281 9.73554L72.4446 10C73.1146 10.1455 73.7052 10.3394 74.2165 10.5818C74.7322 10.8242 75.1642 11.1129 75.5124 11.4479C75.865 11.7829 76.1317 12.1686 76.3124 12.605C76.4931 13.0413 76.5857 13.5306 76.5901 14.0727C76.5857 14.9278 76.3697 15.6617 75.9421 16.2744C75.5146 16.8871 74.8997 17.3565 74.0975 17.6826C73.2997 18.0088 72.3366 18.1719 71.2083 18.1719C70.0755 18.1719 69.0882 18.0022 68.2463 17.6628C67.4044 17.3234 66.7499 16.8077 66.2826 16.1157C65.8154 15.4237 65.5752 14.5488 65.562 13.4909H68.6959C68.7223 13.9273 68.8391 14.2909 69.0463 14.5818C69.2534 14.8727 69.5377 15.0931 69.8992 15.243C70.265 15.3928 70.6882 15.4678 71.1686 15.4678C71.6094 15.4678 71.984 15.4083 72.2926 15.2893C72.6055 15.1702 72.8457 15.005 73.0132 14.7934C73.1807 14.5818 73.2667 14.3394 73.2711 14.0661C73.2667 13.8105 73.1873 13.5923 73.0331 13.4116C72.8788 13.2264 72.6408 13.0678 72.319 12.9355C72.0016 12.7989 71.5961 12.6733 71.1025 12.5587L69.6876 12.2281C68.5151 11.9592 67.5917 11.5251 66.9174 10.9256C66.243 10.3218 65.908 9.50634 65.9124 8.47934C65.908 7.64187 66.1328 6.90799 66.5868 6.27769C67.0408 5.64738 67.6689 5.15592 68.4711 4.80331C69.2733 4.45069 70.1879 4.27438 71.2149 4.27438C72.2639 4.27438 73.1741 4.45289 73.9455 4.80992C74.7212 5.16253 75.3229 5.6584 75.7504 6.29752C76.178 6.93664 76.3961 7.67713 76.405 8.51901H73.2711ZM82.7113 18V4.4595H88.3047C89.3185 4.4595 90.1934 4.65785 90.9295 5.05455C91.67 5.44683 92.2408 5.99559 92.6419 6.70083C93.043 7.40165 93.2436 8.21708 93.2436 9.14711C93.2436 10.0815 93.0386 10.8992 92.6287 11.6C92.2232 12.2964 91.6436 12.8364 90.8899 13.2198C90.1361 13.6033 89.2414 13.795 88.2056 13.795H84.7543V11.2165H87.5973C88.091 11.2165 88.5031 11.1306 88.8337 10.9587C89.1686 10.7868 89.4221 10.5466 89.594 10.238C89.7659 9.92507 89.8518 9.56143 89.8518 9.14711C89.8518 8.72837 89.7659 8.36694 89.594 8.06281C89.4221 7.75427 89.1686 7.51625 88.8337 7.34876C88.4987 7.18127 88.0865 7.09752 87.5973 7.09752H85.9841V18H82.7113ZM100.618 18H97.1004L101.669 4.4595H106.026L110.595 18H107.077L103.897 7.87107H103.791L100.618 18ZM100.148 12.6711H107.5V15.157H100.148V12.6711ZM128.175 9.36529H124.87C124.825 9.0259 124.735 8.71956 124.598 8.44628C124.462 8.173 124.281 7.93939 124.056 7.74545C123.832 7.55152 123.565 7.40386 123.256 7.30248C122.952 7.19669 122.615 7.1438 122.245 7.1438C121.588 7.1438 121.022 7.30468 120.546 7.62645C120.074 7.94821 119.71 8.41322 119.455 9.02149C119.203 9.62975 119.078 10.3658 119.078 11.2298C119.078 12.1289 119.206 12.8826 119.461 13.4909C119.721 14.0948 120.085 14.551 120.552 14.8595C121.024 15.1636 121.581 15.3157 122.225 15.3157C122.586 15.3157 122.915 15.2694 123.21 15.1769C123.51 15.0843 123.772 14.9499 123.997 14.7736C124.226 14.5928 124.413 14.3747 124.559 14.119C124.709 13.859 124.812 13.5658 124.87 13.2397L128.175 13.2595C128.118 13.859 127.944 14.4496 127.653 15.0314C127.367 15.6132 126.972 16.1444 126.47 16.6248C125.967 17.1008 125.354 17.4799 124.632 17.762C123.913 18.0441 123.089 18.1851 122.159 18.1851C120.933 18.1851 119.836 17.9163 118.866 17.3785C117.901 16.8364 117.138 16.0474 116.579 15.0116C116.019 13.9758 115.739 12.7152 115.739 11.2298C115.739 9.73994 116.023 8.47714 116.592 7.44132C117.16 6.40551 117.93 5.61873 118.899 5.08099C119.869 4.54325 120.956 4.27438 122.159 4.27438C122.979 4.27438 123.737 4.38898 124.433 4.61818C125.13 4.84298 125.742 5.17355 126.271 5.60992C126.8 6.04187 127.23 6.573 127.56 7.20331C127.891 7.83361 128.096 8.55427 128.175 9.36529ZM134.516 18V4.4595H143.958V7.11736H137.789V9.89421H143.475V12.5587H137.789V15.3421H143.958V18H134.516Z" fill="#E5E5EA"/>
</g>
<g filter="url(#filter1_dd_3_95)">
<line x1="62.7363" y1="30.5636" x2="84.2636" y2="30.5636" stroke="#E5E5EA" stroke-width="3.49091"/>
</g>
<defs>
<filter id="filter0_dd_3_95" x="0.714964" y="2.52896" width="145.57" height="19.438" filterUnits="userSpaceOnUse" color-interpolation-filters="sRGB">
<feFlood flood-opacity="0" result="BackgroundImageFix"/>
<feColorMatrix in="SourceAlpha" type="matrix" values="0 0 0 0 0 0 0 0 0 0 0 0 0 0 0 0 0 0 127 0" result="hardAlpha"/>
<feOffset dy="0.581818"/>
<feGaussianBlur stdDeviation="0.581818"/>
<feColorMatrix type="matrix" values="0 0 0 0 0 0 0 0 0 0 0 0 0 0 0 0 0 0 0.3 0"/>
<feBlend mode="normal" in2="BackgroundImageFix" result="effect1_dropShadow_3_95"/>
<feColorMatrix in="SourceAlpha" type="matrix" values="0 0 0 0 0 0 0 0 0 0 0 0 0 0 0 0 0 0 127 0" result="hardAlpha"/>
<feMorphology radius="0.581818" operator="dilate" in="SourceAlpha" result="effect2_dropShadow_3_95"/>
<feOffset dy="0.581818"/>
<feGaussianBlur stdDeviation="0.872727"/>
<feColorMatrix type="matrix" values="0 0 0 0 0 0 0 0 0 0 0 0 0 0 0 0 0 0 0.15 0"/>
<feBlend mode="normal" in2="effect1_dropShadow_3_95" result="effect2_dropShadow_3_95"/>
<feBlend mode="normal" in="SourceGraphic" in2="effect2_dropShadow_3_95" result="shape"/>
</filter>
<filter id="filter1_dd_3_95" x="60.4091" y="27.0727" width="26.1819" height="8.14551" filterUnits="userSpaceOnUse" color-interpolation-filters="sRGB">
<feFlood flood-opacity="0" result="BackgroundImageFix"/>
<feColorMatrix in="SourceAlpha" type="matrix" values="0 0 0 0 0 0 0 0 0 0 0 0 0 0 0 0 0 0 127 0" result="hardAlpha"/>
<feOffset dy="0.581818"/>
<feGaussianBlur stdDeviation="0.581818"/>
<feColorMatrix type="matrix" values="0 0 0 0 0 0 0 0 0 0 0 0 0 0 0 0 0 0 0.3 0"/>
<feBlend mode="normal" in2="BackgroundImageFix" result="effect1_dropShadow_3_95"/>
<feColorMatrix in="SourceAlpha" type="matrix" values="0 0 0 0 0 0 0 0 0 0 0 0 0 0 0 0 0 0 127 0" result="hardAlpha"/>
<feMorphology radius="0.581818" operator="dilate" in="SourceAlpha" result="effect2_dropShadow_3_95"/>
<feOffset dy="0.581818"/>
<feGaussianBlur stdDeviation="0.872727"/>
<feColorMatrix type="matrix" values="0 0 0 0 0 0 0 0 0 0 0 0 0 0 0 0 0 0 0.15 0"/>
<feBlend mode="normal" in2="effect1_dropShadow_3_95" result="effect2_dropShadow_3_95"/>
<feBlend mode="normal" in="SourceGraphic" in2="effect2_dropShadow_3_95" result="shape"/>
</filter>
</defs>
</svg>
